<svg xmlns="http://www.w3.org/2000/svg" viewBox="0 0 1180 560" role="img" aria-labelledby="title desc">
  <title id="title">Execution state surface routing matrix</title>
  <desc id="desc">A routing matrix for deciding where different execution state events should be stored and shown.</desc>
  <defs>
    <style>
      .bg { fill: #fbfaf7; }
      .box { fill: #ffffff; stroke: #d8d1c3; stroke-width: 2; }
      .headbox { fill: #f1f5f9; stroke: #94a3b8; stroke-width: 2; }
      .good { fill: #dcfce7; stroke: #15803d; }
      .warn { fill: #ffedd5; stroke: #ea580c; }
      .blue { fill: #dbeafe; stroke: #1d4ed8; }
      .violet { fill: #ede9fe; stroke: #6d28d9; }
      .title { font: 700 24px Inter, Arial, sans-serif; fill: #0f172a; }
      .head { font: 700 15px Inter, Arial, sans-serif; fill: #0f172a; }
      .text { font: 500 13px Inter, Arial, sans-serif; fill: #475569; }
      .code { font: 600 12px "JetBrains Mono", Consolas, monospace; fill: #1f2933; }
      .arrow { stroke: #64748b; stroke-width: 2.5; fill: none; marker-end: url(#arrow); }
    </style>
    <marker id="arrow" markerWidth="10" markerHeight="10" refX="8" refY="3" orient="auto" markerUnits="strokeWidth">
      <path d="M0,0 L0,6 L9,3 z" fill="#64748b" />
    </marker>
  </defs>

  <rect class="bg" width="1180" height="560" />
  <text class="title" x="48" y="48">Route each state update by source, audience, and lifetime</text>
  <text class="text" x="48" y="76">The mistake is sending every progress event to every surface. The fix is a routing table.</text>

  <g transform="translate(56 120)">
    <rect class="headbox" width="248" height="60" rx="10" />
    <text class="head" x="18" y="26">Event source</text>
    <text class="text" x="18" y="46">Where truth originates</text>
  </g>
  <g transform="translate(334 120)">
    <rect class="headbox" width="248" height="60" rx="10" />
    <text class="head" x="18" y="26">Projection</text>
    <text class="text" x="18" y="46">Where users see it</text>
  </g>
  <g transform="translate(612 120)">
    <rect class="headbox" width="248" height="60" rx="10" />
    <text class="head" x="18" y="26">Persistence</text>
    <text class="text" x="18" y="46">How long it lives</text>
  </g>
  <g transform="translate(890 120)">
    <rect class="headbox" width="220" height="60" rx="10" />
    <text class="head" x="18" y="26">Context policy</text>
    <text class="text" x="18" y="46">What goes back to model</text>
  </g>

  <g transform="translate(56 210)">
    <rect class="blue" width="248" height="72" rx="10" />
    <text class="code" x="18" y="28">PlanDelta</text>
    <text class="text" x="18" y="52">model proposes a plan</text>
  </g>
  <g transform="translate(56 302)">
    <rect class="violet" width="248" height="72" rx="10" />
    <text class="code" x="18" y="28">TodoWrite / update_plan</text>
    <text class="text" x="18" y="52">model updates current focus</text>
  </g>
  <g transform="translate(56 394)">
    <rect class="good" width="248" height="72" rx="10" />
    <text class="code" x="18" y="28">tool_progress</text>
    <text class="text" x="18" y="52">runtime reports facts</text>
  </g>

  <g transform="translate(334 210)">
    <rect class="box" width="248" height="72" rx="10" />
    <text class="head" x="18" y="28">approval UI</text>
    <text class="text" x="18" y="52">do not render as execution</text>
  </g>
  <g transform="translate(334 302)">
    <rect class="box" width="248" height="72" rx="10" />
    <text class="head" x="18" y="28">checklist / title</text>
    <text class="text" x="18" y="52">one active task</text>
  </g>
  <g transform="translate(334 394)">
    <rect class="box" width="248" height="72" rx="10" />
    <text class="head" x="18" y="28">operator stream</text>
    <text class="text" x="18" y="52">dedupe or collapse repeats</text>
  </g>

  <g transform="translate(612 210)">
    <rect class="box" width="248" height="72" rx="10" />
    <text class="head" x="18" y="28">proposal item</text>
    <text class="text" x="18" y="52">expires after approval</text>
  </g>
  <g transform="translate(612 302)">
    <rect class="box" width="248" height="72" rx="10" />
    <text class="head" x="18" y="28">session state</text>
    <text class="text" x="18" y="52">resume unfinished only</text>
  </g>
  <g transform="translate(612 394)">
    <rect class="box" width="248" height="72" rx="10" />
    <text class="head" x="18" y="28">event log</text>
    <text class="text" x="18" y="52">facts for audit and UI</text>
  </g>

  <g transform="translate(890 210)">
    <rect class="warn" width="220" height="72" rx="10" />
    <text class="head" x="18" y="28">never as memory</text>
    <text class="text" x="18" y="52">proposal is not fact</text>
  </g>
  <g transform="translate(890 302)">
    <rect class="good" width="220" height="72" rx="10" />
    <text class="head" x="18" y="28">inject pending work</text>
    <text class="text" x="18" y="52">skip completed items</text>
  </g>
  <g transform="translate(890 394)">
    <rect class="warn" width="220" height="72" rx="10" />
    <text class="head" x="18" y="28">summarize only</text>
    <text class="text" x="18" y="52">avoid noisy raw events</text>
  </g>

  <path class="arrow" d="M304 246 H322" />
  <path class="arrow" d="M582 246 H600" />
  <path class="arrow" d="M860 246 H878" />
  <path class="arrow" d="M304 338 H322" />
  <path class="arrow" d="M582 338 H600" />
  <path class="arrow" d="M860 338 H878" />
  <path class="arrow" d="M304 430 H322" />
  <path class="arrow" d="M582 430 H600" />
  <path class="arrow" d="M860 430 H878" />
</svg>
