<?xml version="1.0" encoding="UTF-8"?>
<svg xmlns="http://www.w3.org/2000/svg" viewBox="0 0 880 620" role="img"
     aria-label="四种 subagent 模型流程并列">
  <defs>
    <filter id="wb10F"><feTurbulence type="fractalNoise" baseFrequency="0.022" numOctaves="2" seed="83" /><feDisplacementMap in="SourceGraphic" scale="1.5" /></filter>
    <marker id="ar10F" markerWidth="10" markerHeight="10" refX="9" refY="3" orient="auto"><path d="M0,0 L0,6 L9,3 z" fill="#0f172a" /></marker>
    <style>
      .h    { font: 600 14px sans-serif; fill: #0f172a; }
      .col  { font: 700 13px sans-serif; fill: #0f172a; }
      .lbl  { font: 700 12px sans-serif; fill: #0f172a; }
      .t-s  { font: 12px sans-serif; fill: #334155; }
      .note { font: italic 10.5px sans-serif; fill: #92400e; }
    </style>
  </defs>

  <text x="440" y="24" class="h" text-anchor="middle">四种 subagent 模型并列</text>
  <text x="440" y="42" class="t-s" text-anchor="middle">从函数式（Hermes）→ 类型化（Codex）→ 任务抽象（Claude Code）→ 完整平台（OpenClaw）</text>

  <g filter="url(#wb10F)">
    <!-- Hermes: function-style -->
    <text x="120" y="70" class="col" text-anchor="middle">Hermes · delegate_task</text>
    <rect x="40" y="80" width="160" height="36" rx="8" fill="#fef3c7" stroke="#0f172a" stroke-width="1.6" />
    <text x="120" y="103" class="lbl" text-anchor="middle">delegate_task(goal, ctx)</text>

    <line x1="120" y1="116" x2="120" y2="135" stroke="#0f172a" stroke-width="1.6" marker-end="url(#ar10F)" />

    <rect x="40" y="138" width="160" height="48" rx="8" fill="#bfdbfe" stroke="#0f172a" stroke-width="1.6" />
    <text x="120" y="158" class="lbl" text-anchor="middle">if depth ≥ MAX_DEPTH</text>
    <text x="120" y="174" class="t-s" text-anchor="middle">parent(0)→child(1)→reject</text>

    <line x1="120" y1="186" x2="120" y2="205" stroke="#0f172a" stroke-width="1.6" marker-end="url(#ar10F)" />

    <rect x="40" y="208" width="160" height="60" rx="8" fill="#dcfce7" stroke="#0f172a" stroke-width="1.6" />
    <text x="120" y="228" class="lbl" text-anchor="middle">硬禁 5 工具</text>
    <text x="120" y="244" class="t-s" text-anchor="middle">delegate · clarify · memory</text>
    <text x="120" y="258" class="t-s" text-anchor="middle">send_message · execute_code</text>

    <line x1="120" y1="268" x2="120" y2="287" stroke="#0f172a" stroke-width="1.6" marker-end="url(#ar10F)" />

    <rect x="40" y="290" width="160" height="48" rx="8" fill="#fed7aa" stroke="#0f172a" stroke-width="1.6" />
    <text x="120" y="310" class="lbl" text-anchor="middle">ThreadPoolExecutor</text>
    <text x="120" y="326" class="t-s" text-anchor="middle">默认 3 并发</text>

    <line x1="120" y1="338" x2="120" y2="357" stroke="#0f172a" stroke-width="1.6" marker-end="url(#ar10F)" />

    <rect x="40" y="360" width="160" height="36" rx="8" fill="#e2e8f0" stroke="#0f172a" stroke-width="1.6" />
    <text x="120" y="383" class="lbl" text-anchor="middle">as_completed 阻塞</text>

    <text x="120" y="420" class="note" text-anchor="middle">函数式 · 同步阻塞</text>
    <text x="120" y="435" class="note" text-anchor="middle">最小可用 · 边界清晰</text>

    <!-- Codex: typed -->
    <text x="330" y="70" class="col" text-anchor="middle">Codex · SubAgentSource</text>
    <rect x="250" y="80" width="160" height="36" rx="8" fill="#fef3c7" stroke="#0f172a" stroke-width="1.6" />
    <text x="330" y="103" class="lbl" text-anchor="middle">Codex::spawn(args)</text>

    <line x1="330" y1="116" x2="330" y2="135" stroke="#0f172a" stroke-width="1.6" marker-end="url(#ar10F)" />

    <rect x="250" y="138" width="160" height="60" rx="8" fill="#bfdbfe" stroke="#0f172a" stroke-width="1.6" />
    <text x="330" y="158" class="lbl" text-anchor="middle">SubAgentSource 5 种</text>
    <text x="330" y="174" class="t-s" text-anchor="middle">Review · Compact</text>
    <text x="330" y="188" class="t-s" text-anchor="middle">ThreadSpawn · Memory · Other</text>

    <line x1="330" y1="198" x2="330" y2="217" stroke="#0f172a" stroke-width="1.6" marker-end="url(#ar10F)" />

    <rect x="250" y="220" width="160" height="60" rx="8" fill="#dcfce7" stroke="#0f172a" stroke-width="1.6" />
    <text x="330" y="240" class="lbl" text-anchor="middle">继承父 7 类 service</text>
    <text x="330" y="256" class="t-s" text-anchor="middle">exec_policy · plugins · mcp</text>
    <text x="330" y="270" class="t-s" text-anchor="middle">skills · environment · ...</text>

    <line x1="330" y1="280" x2="330" y2="299" stroke="#0f172a" stroke-width="1.6" marker-end="url(#ar10F)" />

    <rect x="250" y="302" width="160" height="48" rx="8" fill="#fed7aa" stroke="#0f172a" stroke-width="1.6" />
    <text x="330" y="322" class="lbl" text-anchor="middle">AskForApproval=Never</text>
    <text x="330" y="338" class="t-s" text-anchor="middle">审批永远路由回父</text>

    <line x1="330" y1="350" x2="330" y2="369" stroke="#0f172a" stroke-width="1.6" marker-end="url(#ar10F)" />

    <rect x="250" y="372" width="160" height="36" rx="8" fill="#e2e8f0" stroke="#0f172a" stroke-width="1.6" />
    <text x="330" y="395" class="lbl" text-anchor="middle">receiver 推 TurnComplete</text>

    <text x="330" y="430" class="note" text-anchor="middle">类型化继承</text>
    <text x="330" y="445" class="note" text-anchor="middle">子永远 ≤ 父的能力集</text>

    <!-- Claude Code: Task abstraction -->
    <text x="540" y="70" class="col" text-anchor="middle">Claude Code · Task</text>
    <rect x="460" y="80" width="160" height="36" rx="8" fill="#fef3c7" stroke="#0f172a" stroke-width="1.6" />
    <text x="540" y="103" class="lbl" text-anchor="middle">TaskCreateTool 调用</text>

    <line x1="540" y1="116" x2="540" y2="135" stroke="#0f172a" stroke-width="1.6" marker-end="url(#ar10F)" />

    <rect x="460" y="138" width="160" height="72" rx="8" fill="#bfdbfe" stroke="#0f172a" stroke-width="1.6" />
    <text x="540" y="158" class="lbl" text-anchor="middle">TaskType 7 种</text>
    <text x="540" y="174" class="t-s" text-anchor="middle">local_bash · local_agent</text>
    <text x="540" y="188" class="t-s" text-anchor="middle">remote_agent · teammate</text>
    <text x="540" y="202" class="t-s" text-anchor="middle">workflow · monitor · dream</text>

    <line x1="540" y1="210" x2="540" y2="229" stroke="#0f172a" stroke-width="1.6" marker-end="url(#ar10F)" />

    <rect x="460" y="232" width="160" height="48" rx="8" fill="#dcfce7" stroke="#0f172a" stroke-width="1.6" />
    <text x="540" y="252" class="lbl" text-anchor="middle">FSM 状态</text>
    <text x="540" y="268" class="t-s" text-anchor="middle">pending→running→done/fail/killed</text>

    <line x1="540" y1="280" x2="540" y2="299" stroke="#0f172a" stroke-width="1.6" marker-end="url(#ar10F)" />

    <rect x="460" y="302" width="160" height="48" rx="8" fill="#fed7aa" stroke="#0f172a" stroke-width="1.6" />
    <text x="540" y="322" class="lbl" text-anchor="middle">isConcurrencySafe()</text>
    <text x="540" y="338" class="t-s" text-anchor="middle">dispatcher 自动决定并发</text>

    <line x1="540" y1="350" x2="540" y2="369" stroke="#0f172a" stroke-width="1.6" marker-end="url(#ar10F)" />

    <rect x="460" y="372" width="160" height="36" rx="8" fill="#e2e8f0" stroke="#0f172a" stroke-width="1.6" />
    <text x="540" y="395" class="lbl" text-anchor="middle">outputFile 持久化</text>

    <text x="540" y="430" class="note" text-anchor="middle">任务抽象</text>
    <text x="540" y="445" class="note" text-anchor="middle">subagent 只是其中一种</text>

    <!-- OpenClaw: full platform -->
    <text x="760" y="70" class="col" text-anchor="middle">OpenClaw · subagent 平台</text>
    <rect x="680" y="80" width="160" height="36" rx="8" fill="#fef3c7" stroke="#0f172a" stroke-width="1.6" />
    <text x="760" y="103" class="lbl" text-anchor="middle">spawn_subagent(13 字段)</text>

    <line x1="760" y1="116" x2="760" y2="135" stroke="#0f172a" stroke-width="1.6" marker-end="url(#ar10F)" />

    <rect x="680" y="138" width="160" height="60" rx="8" fill="#bfdbfe" stroke="#0f172a" stroke-width="1.6" />
    <text x="760" y="158" class="lbl" text-anchor="middle">registry 注册 run</text>
    <text x="760" y="174" class="t-s" text-anchor="middle">mode (run / session)</text>
    <text x="760" y="188" class="t-s" text-anchor="middle">sandbox (inherit / require)</text>

    <line x1="760" y1="198" x2="760" y2="217" stroke="#0f172a" stroke-width="1.6" marker-end="url(#ar10F)" />

    <rect x="680" y="220" width="160" height="48" rx="8" fill="#dcfce7" stroke="#0f172a" stroke-width="1.6" />
    <text x="760" y="240" class="lbl" text-anchor="middle">spawnDepth → session 存储</text>
    <text x="760" y="256" class="t-s" text-anchor="middle">跨进程重启保留</text>

    <line x1="760" y1="268" x2="760" y2="287" stroke="#0f172a" stroke-width="1.6" marker-end="url(#ar10F)" />

    <rect x="680" y="290" width="160" height="60" rx="8" fill="#fed7aa" stroke="#0f172a" stroke-width="1.6" />
    <text x="760" y="310" class="lbl" text-anchor="middle">返回值塞硬警告</text>
    <text x="760" y="326" class="t-s" text-anchor="middle">「不要 poll，等 push event」</text>
    <text x="760" y="340" class="t-s" text-anchor="middle">写进 tool result</text>

    <line x1="760" y1="350" x2="760" y2="369" stroke="#0f172a" stroke-width="1.6" marker-end="url(#ar10F)" />

    <rect x="680" y="372" width="160" height="48" rx="8" fill="#e2e8f0" stroke="#0f172a" stroke-width="1.6" />
    <text x="760" y="392" class="lbl" text-anchor="middle">subagent-announce</text>
    <text x="760" y="408" class="t-s" text-anchor="middle">push 完成 → user message</text>

    <text x="760" y="445" class="note" text-anchor="middle">完整平台</text>
    <text x="760" y="460" class="note" text-anchor="middle">企业级 · 跨会话恢复</text>
  </g>

  <!-- Bottom comparison -->
  <g>
    <rect x="40" y="490" width="800" height="100" rx="8" fill="#f1f5f9" stroke="#cbd5e1" stroke-width="1" />
    <text x="60" y="510" class="lbl">共同点（四家都同意的事）：</text>
    <text x="60" y="528" class="t-s">· 深度要管：MAX_DEPTH / spawnDepth / ThreadSpawn.depth 总要有一个</text>
    <text x="60" y="544" class="t-s">· 递归 spawn 必禁：子 agent 不能再开同类子 agent，要么工具级硬禁，要么 feature flag</text>
    <text x="60" y="560" class="t-s">· 子工具是父子集：永远不允许子比父更宽松（exec_policy 继承）</text>
    <text x="60" y="576" class="t-s">· 完成靠 push / future：从不 polling 拉子 agent 状态</text>
  </g>

  <text x="440" y="608" class="t-s" text-anchor="middle">从左到右抽象越重；从上到下并发自由度递减。选哪种取决于业务复杂度</text>
</svg>
